<svg width="33" height="27" viewBox="0 0 33 27" fill="none" xmlns="http://www.w3.org/2000/svg">
<path d="M10.1872 21.6412L3.35243 14.3547C2.98414 13.962 2.48464 13.7415 1.96381 13.7415C1.44297 13.7415 0.94347 13.962 0.575185 14.3547C0.2069 14.7473 0 15.2798 0 15.8351C0 16.11 0.0507957 16.3823 0.149486 16.6363C0.248177 16.8903 0.392829 17.1211 0.575185 17.3155L8.80842 26.093C9.5766 26.9119 10.8175 26.9119 11.5857 26.093L32.4248 3.87628C32.7931 3.48365 33 2.95113 33 2.39587C33 1.8406 32.7931 1.30808 32.4248 0.915454C32.0565 0.522824 31.557 0.302246 31.0362 0.302246C30.5154 0.302246 30.0159 0.522824 29.6476 0.915454L10.1872 21.6412Z" fill="black"/>
</svg>
