<svg width="151" height="190" viewBox="0 0 151 190" fill="none" xmlns="http://www.w3.org/2000/svg">
<path d="M11.5137 163.57V41.019L71.8538 0.405029H143.788V163.57H11.5137Z" fill="white"/>
<path d="M138.635 158.118H16.6665V44.0172L73.3481 5.85645H138.635V158.118Z" fill="#121868"/>
<path d="M83.654 44.7805C77.0068 42.3273 69.6897 42.3273 63.0425 44.7805V33.3322L68.1953 36.058L73.3482 30.6064L78.5011 36.058L83.654 33.3322V44.7805Z" fill="#F8AC5A"/>
<path d="M63.7122 132.714L71.2869 129.879L75.2031 121.266C71.1839 117.886 67.5769 119.467 67.5769 119.467L63.1969 127.208L56.7559 130.315L62.9393 148.469L71.6476 146.179L63.7122 132.714Z" fill="white"/>
<path d="M96.7936 130.097L105.038 117.177L113.901 116.904L121.167 110.526L122.3 118.594L115.241 125.409L120.136 134.513L127.35 119.303L125.341 104.148H111.737L114.88 95.6435L107.254 77.5443L107.357 73.2921L113.334 76.236L113.901 78.8527L122.867 82.7233L127.299 77.8169C127.299 77.8169 121.321 69.4761 118.127 66.5867C114.983 63.6974 113.231 62.6071 113.231 62.6071L124.568 45.1077L106.223 60.0994L98.7002 61.8439L86.0241 88.72L83.6538 75.2547L80.0468 68.5493L79.6346 68.4403C83.2416 67.7861 86.1272 65.66 87.0547 62.4436L76.749 56.2288L84.0145 56.0653C83.7053 52.7398 81.1289 50.2321 77.8311 49.1963C71.2354 47.0157 64.6397 49.4144 63.1454 54.5933C61.9603 58.682 64.279 63.2613 68.6074 66.0961L57.1166 84.6313L61.548 92.9722C61.548 92.9722 60.1567 93.0267 58.3017 93.6264C53.0458 80.1066 41.8125 85.013 38.2055 96.6793C36.2474 103.058 26.56 110.853 26.3024 95.2073C20.6858 100.114 22.0771 110.09 29.8064 114.233C38.2571 118.758 45.3165 110.962 46.7078 104.42C49.1296 93.1903 52.479 92.9177 55.2615 94.9893C53.6126 95.9705 52.0152 97.497 50.7785 99.6776C47.223 106.165 49.6449 113.688 49.6449 113.688L37.0719 123.446L38.0509 144.707L46.4501 141.709L42.7916 129.225L58.1471 126.281L65.0004 116.359L77.8311 116.196L90.4556 121.211L91.4347 112.925L94.8355 120.612L91.074 129.334L92.1045 135.767L100.452 138.765L96.7936 130.097Z" fill="white"/>
<path d="M27.7968 189.465C24.4475 189.192 21.3042 187.938 18.4701 186.848C16.3575 186.03 14.1933 185.158 12.3897 184.885C11.2046 186.194 9.65873 187.011 8.00981 187.229C6.97924 187.338 5.94866 187.229 4.96962 186.848L4.19669 186.521C2.34166 185.758 0.950381 184.068 0.332037 181.941C-0.286307 179.815 -0.0286639 177.417 1.00191 175.291C1.8779 173.546 2.75389 172.183 3.52682 171.147C4.60892 169.566 4.86656 169.185 5.1242 167.495L6.36089 158.663C7.85523 148.36 16.0483 136.421 26.7147 135.058C32.0737 134.35 36.5052 137.511 37.6903 142.636C38.7724 142.745 39.6484 142.963 40.3698 143.126C40.6275 143.181 40.8851 143.236 41.0912 143.29L41.5035 143.345C43.2039 142.363 45.8834 141.164 48.4083 140.837C49.8511 140.673 51.1908 140.728 52.376 141.109C53.7158 140.455 55.1586 139.965 56.6529 139.801C59.6416 139.419 61.7542 140.183 63.3001 141.164C65.825 139.365 68.6591 138.22 71.5962 137.838C73.7604 137.566 75.77 137.675 77.5735 138.275C79.0679 137.511 81.1805 136.639 83.3448 136.367C84.736 136.203 86.0758 136.258 87.2609 136.585C88.5491 135.93 89.9404 135.494 91.4348 135.331C93.1352 135.113 94.6811 135.276 96.1239 135.767C97.6182 134.895 99.2671 134.35 101.019 134.131C104.008 133.75 106.172 134.513 107.666 135.549C110.037 133.75 112.613 132.605 115.189 132.278C117.766 131.951 119.879 132.441 121.27 132.769C121.528 132.823 121.785 132.878 121.991 132.932L122.403 132.987C124.104 132.005 126.783 130.806 129.308 130.479C130.751 130.315 132.091 130.37 133.276 130.751C134.616 130.097 136.059 129.607 137.553 129.443C141.933 128.898 144.509 130.751 145.952 132.387C148.168 135.004 148.941 138.765 148.219 143.563L147.601 147.706C148.374 148.196 149.044 148.96 149.456 149.886C149.456 149.886 150.074 150.868 150.074 152.612C150.074 155.338 150.126 163.406 150.126 163.406C150.126 169.403 145.746 174.8 140.335 175.509C140.335 175.509 61.7542 185.594 35.5777 188.974C28.982 189.683 27.7968 189.465 27.7968 189.465Z" fill="white"/>
<path d="M147.549 152.776C147.498 151.14 146.467 149.668 144.818 149.614C144.87 149.178 144.921 148.687 145.025 148.142L145.746 143.29C145.952 141.818 146.622 137.348 144.045 134.349C142.963 133.096 141.005 131.678 137.604 132.114C136.059 132.332 134.564 132.823 133.276 133.695C132.297 133.259 131.009 132.987 129.36 133.205C126.68 133.532 123.743 135.167 122.506 135.93L121.476 135.712C121.321 135.712 120.806 135.603 120.497 135.494C119.209 135.167 117.405 134.731 115.241 135.004C112.51 135.331 109.83 136.803 107.46 139.038C106.378 137.784 104.42 136.421 101.071 136.857C99.164 137.13 97.5151 137.838 96.1753 138.874C95.0932 138.275 93.5474 137.838 91.5377 138.111C89.9403 138.329 88.5491 138.874 87.3124 139.637C86.3333 139.201 85.0967 138.929 83.4477 139.147C81.3351 139.419 79.0678 140.455 77.5735 141.273C75.9245 140.619 73.9149 140.346 71.6477 140.619C68.4529 141.055 65.5158 142.472 63.0939 144.598C62.0118 143.399 60.0022 142.091 56.7559 142.527C55.21 142.745 53.7157 143.235 52.4275 144.108C51.4484 143.672 50.1602 143.399 48.5113 143.617C45.8318 143.944 42.8947 145.58 41.658 146.343L40.6274 146.125C40.4728 146.125 39.9575 146.016 39.6484 145.907C38.5663 145.634 37.2265 145.307 35.5776 145.362C35.3715 140.455 31.6614 137.239 26.8177 137.838C17.4395 139.038 10.277 149.614 8.93727 158.772L7.70058 167.604C7.3914 170.003 6.72153 170.929 5.5879 172.619C4.8665 173.655 4.09357 174.854 3.32064 176.381C1.87784 179.325 2.85688 182.759 5.43331 183.849L6.20624 184.177C8.11281 184.994 10.3801 184.013 11.5652 181.941C13.9871 181.941 16.8727 183.086 19.6552 184.177C23.1077 185.539 26.6631 186.957 30.4247 186.684V186.739L140.387 172.565C144.406 172.02 147.704 167.985 147.652 163.57L147.549 152.776Z" fill="#121868"/>
<path d="M26.7661 143.344C29.2394 143.017 30.4761 144.544 30.4761 146.397C30.4761 148.741 28.4665 151.086 26.2508 151.358C24.8595 151.522 23.6228 150.65 23.9835 148.85C25.1687 148.741 25.9416 147.433 25.8901 146.288C25.8901 145.362 25.1171 144.326 23.8805 144.489C21.201 144.816 20.4796 149.396 20.1704 151.685L18.6245 163.134C17.6455 170.493 11.4105 172.02 8.00963 178.016C10.7406 174.037 13.5747 172.02 16.2027 171.692C22.4377 170.875 30.7853 175.999 35.9897 175.345C37.2779 175.181 38.1539 174.691 38.9784 173.546H39.0299C36.8142 178.725 34.1347 180.688 31.1975 181.069C25.0656 181.887 17.8001 175.509 10.5861 176.435C9.50396 176.599 8.73103 176.926 7.75198 178.616L7.64893 178.561C9.29784 175.127 11.8227 173.601 12.6472 167.822L13.8839 158.99C14.8114 152.394 20.1704 144.217 26.7661 143.344Z" fill="#F9AD5A"/>
<path d="M40.5757 160.626C40.112 163.57 39.5967 168.04 41.1425 167.767L41.091 167.822C40.4211 168.095 39.6482 168.258 38.9268 168.313C36.3504 168.64 34.1346 167.767 34.9591 163.461L35.9897 158.173H35.9381C34.0831 166.732 31.7128 169.294 29.0333 169.621C25.8385 170.057 24.7049 167.059 24.7049 164.006C24.7049 158.718 29.1364 151.631 34.2377 150.977C36.6596 150.65 38.6692 151.849 40.215 151.685C40.9364 151.576 41.5548 151.195 42.0701 150.104L40.5757 160.626ZM30.27 165.042C30.27 166.405 30.6822 167.822 31.4552 167.713C33.3102 167.495 35.2683 161.989 36.0412 156.973L36.3504 154.902C36.608 153.103 36.8141 150.813 35.2167 151.031C32.2796 151.413 30.2185 159.699 30.27 165.042Z" fill="#F9AD5A"/>
<path d="M48.9234 159.59H49.0265C51.0361 150.704 53.9732 148.414 56.6527 148.033C60.3112 147.542 60.1567 151.031 59.8475 153.375L59.1261 158.227C58.6623 161.171 58.3016 165.26 59.7444 165.369L59.6929 165.423C58.9715 165.641 58.1986 165.859 57.4772 165.968C55.0038 166.295 52.8911 165.369 53.4579 161.062L54.6431 152.612C54.9007 150.813 54.7977 149.723 54.0247 149.777C52.4789 149.995 50.2631 154.466 49.1295 159.59C48.6142 161.934 47.7898 166.35 48.9234 166.677L48.8719 166.732C47.8928 167.004 47.0168 167.222 46.2954 167.331C43.9251 167.658 42.843 166.677 43.4614 162.425L45.1103 151.685C45.2649 150.704 44.8011 150.377 43.8221 150.922L43.7705 150.868C44.8526 150.159 46.9653 149.178 48.4081 148.959C50.1086 148.741 50.933 149.396 50.4693 151.685L48.9234 159.59Z" fill="#F9AD5A"/>
<path d="M71.5961 146.179C73.7603 145.907 77.4188 146.234 77.4188 149.559C77.4188 151.467 76.0275 153.484 73.9664 153.757C72.6266 153.92 71.3384 153.157 71.5445 151.14C72.7812 150.595 73.3996 149.45 73.3996 148.414C73.3996 147.27 72.7297 146.179 71.3899 146.343C68.4013 146.724 67.1131 152.339 67.1131 155.392C67.1131 159.045 68.9681 161.116 71.6476 160.789C73.245 160.571 74.9969 159.536 76.2336 157.627L76.2852 157.682C74.1725 161.934 70.6685 164.333 67.6283 164.769C64.279 165.205 61.3934 163.188 61.3934 158.5C61.4449 152.558 65.8248 146.888 71.5961 146.179Z" fill="#F9AD5A"/>
<path d="M93.3926 153.866H93.4957C95.5053 144.98 98.2363 142.69 100.967 142.363C104.626 141.873 104.368 145.416 104.008 147.706L103.286 152.558C102.822 155.501 102.565 159.59 103.956 159.699L103.904 159.754C103.183 159.972 102.41 160.19 101.689 160.299C99.2154 160.626 97.1027 159.699 97.6695 155.392L98.7516 146.942C99.0093 145.143 99.0608 143.999 98.2363 144.108C96.6905 144.326 94.6293 148.741 93.5472 153.866C93.0319 156.21 92.3105 160.626 93.4442 160.953L93.3926 161.007C92.4136 161.28 91.5376 161.498 90.8162 161.607C88.4459 161.934 87.4153 160.953 87.9821 156.701L89.2188 148.087C89.4765 146.288 89.528 145.143 88.7035 145.252C87.1577 145.471 85.0965 149.886 84.0144 155.011C83.4991 157.355 82.6747 161.771 83.8083 162.098L83.7568 162.152C82.7777 162.425 81.9017 162.643 81.1803 162.752C78.81 163.079 77.7279 162.098 78.3463 157.846L79.9952 147.106C80.1498 146.125 79.686 145.798 78.707 146.343L78.6554 146.288C79.7375 145.58 81.8502 144.598 83.293 144.38C84.9935 144.162 85.8179 144.816 85.3542 147.106L83.8083 154.847H83.9114C85.921 145.961 88.652 143.672 91.383 143.344C94.99 142.854 94.7839 146.343 94.3201 148.687L93.3926 153.866Z" fill="#F9AD5A"/>
<path d="M121.424 150.213C120.96 153.157 120.445 157.627 121.991 157.355L121.94 157.409C121.27 157.682 120.497 157.846 119.775 157.9C117.199 158.227 114.983 157.355 115.808 153.048L116.838 147.76H116.787C114.932 156.319 112.561 158.881 109.882 159.208C106.687 159.645 105.553 156.646 105.553 153.593C105.553 148.305 109.985 141.218 115.086 140.564C117.508 140.237 119.518 141.436 121.064 141.273C121.785 141.164 122.403 140.782 122.919 139.692L121.424 150.213ZM111.119 154.629C111.119 155.992 111.531 157.409 112.304 157.3C114.159 157.082 116.117 151.576 116.89 146.561L117.199 144.489C117.457 142.69 117.663 140.401 116.065 140.619C113.077 141 111.067 149.287 111.119 154.629Z" fill="#F9AD5A"/>
<path d="M129.772 149.178H129.875C131.885 140.292 134.822 138.002 137.501 137.62C141.16 137.13 141.005 140.619 140.696 142.963L139.975 147.815C139.511 150.759 139.15 154.847 140.593 154.956L140.541 155.011C139.82 155.229 139.047 155.447 138.326 155.556C135.852 155.883 133.74 154.956 134.306 150.65L135.492 142.2C135.749 140.401 135.646 139.31 134.873 139.365C133.327 139.583 131.112 144.053 129.978 149.178C129.463 151.522 128.638 155.938 129.772 156.265L129.72 156.319C128.741 156.592 127.865 156.81 127.144 156.919C124.774 157.246 123.692 156.265 124.31 152.012L125.959 141.273C126.113 140.292 125.65 139.965 124.671 140.51L124.619 140.455C125.701 139.746 127.814 138.765 129.257 138.547C130.957 138.329 131.782 138.983 131.318 141.273L129.772 149.178Z" fill="#F9AD5A"/>
<path d="M47.8928 173.001C49.2325 172.837 50.16 173.764 50.16 175.181C50.16 176.599 49.2325 177.798 47.8928 177.962C46.553 178.125 45.6255 177.199 45.6255 175.781C45.6255 174.309 46.553 173.164 47.8928 173.001ZM47.8928 173.764C47.1198 173.873 46.5015 174.636 46.5015 175.618C46.5015 176.599 47.1198 177.199 47.8928 177.089C48.6657 176.98 49.284 176.217 49.284 175.236C49.284 174.255 48.6657 173.71 47.8928 173.764Z" fill="white"/>
<path d="M57.2195 175.127V171.911L58.0439 171.802V176.49L57.1164 176.599L55.0037 173.655H54.9522V176.871L54.1277 176.98V172.292L55.0553 172.183L57.2195 175.127Z" fill="white"/>
<path d="M62.3208 171.256L63.1452 171.147V175.072L65.5155 174.745V175.508L62.2692 175.945L62.3208 171.256Z" fill="white"/>
<path d="M70.3077 174.909L69.4833 175.018V170.329L70.3077 170.22V174.909Z" fill="white"/>
<path d="M77.6248 172.51V169.294L78.4493 169.185V173.873L77.5217 173.982L75.4091 171.038H75.3575V174.255L74.5331 174.364V169.675L75.4606 169.566L77.6248 172.51Z" fill="white"/>
<path d="M82.7776 168.64L86.1785 168.203V168.967L83.6536 169.294V170.493L85.4056 170.275V171.038L83.6536 171.256V172.401L86.2301 172.074V172.837L82.7776 173.273V168.64Z" fill="white"/>
<path d="M97.721 166.841C97.8756 166.895 98.0302 167.004 98.1332 167.059L97.8241 167.713C97.721 167.658 97.6179 167.604 97.5149 167.549C97.3088 167.495 97.0511 167.386 96.6904 167.44C96.1236 167.495 95.866 167.876 95.866 168.094C95.866 169.021 98.2363 168.258 98.2878 169.893C98.2878 170.711 97.6695 171.474 96.4328 171.638C95.9175 171.692 95.5568 171.583 95.2476 171.474C95.093 171.42 94.9384 171.311 94.8354 171.202L95.1961 170.548C95.2992 170.602 95.4022 170.711 95.5053 170.766C95.7114 170.875 96.0206 170.929 96.3297 170.929C96.9996 170.82 97.3603 170.439 97.3603 170.057C97.3603 169.239 94.99 169.948 94.9385 168.258C94.9385 167.604 95.5568 166.841 96.5874 166.732C97.1027 166.677 97.4634 166.732 97.721 166.841Z" fill="white"/>
<path d="M105.296 165.805C105.45 165.859 105.553 165.914 105.656 165.968L105.296 166.622C105.193 166.568 105.09 166.513 104.987 166.513C104.78 166.459 104.574 166.404 104.265 166.459C103.389 166.568 102.771 167.331 102.771 168.312C102.771 169.294 103.389 169.893 104.265 169.784C104.574 169.73 104.832 169.621 105.038 169.512C105.141 169.457 105.244 169.348 105.347 169.294L105.708 169.893C105.605 170.002 105.45 170.111 105.296 170.22C105.038 170.384 104.677 170.548 104.214 170.602C102.822 170.766 101.895 169.893 101.895 168.421C101.895 167.004 102.822 165.805 104.214 165.641C104.677 165.696 105.038 165.75 105.296 165.805Z" fill="white"/>
<path d="M113.54 164.66V169.348L112.716 169.457V167.495L110.552 167.767V169.73L109.727 169.839V165.151L110.552 165.042V167.004L112.716 166.732V164.769L113.54 164.66Z" fill="white"/>
<path d="M119.827 163.733C121.167 163.57 122.094 164.496 122.094 165.914C122.094 167.331 121.167 168.531 119.827 168.694C118.487 168.858 117.56 167.931 117.56 166.514C117.56 165.042 118.539 163.897 119.827 163.733ZM119.827 164.551C119.054 164.66 118.435 165.423 118.435 166.405C118.435 167.386 119.054 167.985 119.827 167.876C120.6 167.767 121.218 167.004 121.218 166.023C121.27 165.042 120.651 164.442 119.827 164.551Z" fill="white"/>
<path d="M128.123 162.643C129.463 162.479 130.39 163.406 130.39 164.824C130.39 166.241 129.463 167.44 128.123 167.604C126.783 167.767 125.856 166.841 125.856 165.423C125.856 164.006 126.835 162.806 128.123 162.643ZM128.123 163.461C127.35 163.57 126.732 164.333 126.732 165.314C126.732 166.295 127.35 166.895 128.123 166.786C128.896 166.677 129.514 165.914 129.514 164.933C129.514 163.951 128.947 163.352 128.123 163.461Z" fill="white"/>
<path d="M134.461 161.989L135.285 161.88V165.805L137.656 165.478V166.241L134.409 166.677L134.461 161.989Z" fill="white"/>
</svg>
